{"title":"The Seven rets (1969)","uid":8265759,"size":1538439705,"categoryP":"video","categoryS":"movies","magnet":"?xt=urn:btih:c5da2f641c2bc6d6af82ff5b0f5172d203c94000&amp;dn=The+Seven+rets+%281969%29&amp;tr=udp%3A%2F%2Ftracker.openbittorrent.com%3A80&amp;tr=udp%3A%2F%2Fopen.demonii.com%3A1337&amp;tr=udp%3A%2F%2Ftracker.coppersurfer.tk%3A6969&amp;tr=udp%3A%2F%2Fexodus.desync.com%3A6969","seeders":0,"leechers":1,"uploader":"RadioResearch","files":3,"time":1363495210,"description":"*******************************************************************************\n                          The Seven Red Berets (1969)\n*******************************************************************************\n\n-------------------------------------------------------------------------------\n                              General Information\n-------------------------------------------------------------------------------\nType.................: Movie\n\n\n\nVideo Format.........: AVI\nVideo Bitrate........: 2261\nResolution...........: 692 x 446\nColor................: 8 bit\nFPS..................: 25.000\nSource...............: DVD from video\nOriginal Format......: NTSC\nGenre................: War\nIMDb Rating..........: 5.3\nMovie Information....: http://www.imdb.com/title/tt0132535/\n\n-------------------------------------------------------------------------------\n                               Post Information\n-------------------------------------------------------------------------------\nPosted by............: RadioResearch\nPosted on............: 3/17/2013\n\n-------------------------------------------------------------------------------\n                                 Release Notes\n-------------------------------------------------------------------------------\nSEEDBOX SUPPORTED!\n\nORIGINAL TITLE; Sette Baschi Rossi\n\nENGLISH WITH HARD-CODED GREEK SUBTITLES\n\nDeep in the African Congo, revolution rages and explosive documents have fallen \ninto the hands of nationalist guerillas. The Red Berets are the governments only \nhope of retrieving papers which could change the course of the war.\n\nThis is another of the lost Macaroni Combat films and deals with the Congo \nCrisis ('66-'67).  It's not too bad of a film, being something of a cross \nbetween Dark of the Sun and Zulu Dawn. starring Dale Cummings (Battle of the \nDamned), Ivan Rassimov (of various Eurotrash films of dubious distinction), \nSieghardt Rupp (Der Bockerer, A Fistful of Dollars), Arthur Brauss (Cross of \nIron) and a whole host of Macaroni Combat regulars.\n\nNow the bad news:  This film is virtually impossible to lay hands on.  I have \nnever seen it available.  This one has hard-coded Greek subtitles.  It is also \nfrom a DVD which was apparently made from a video.  The video itself has one or \ntwo tracking issues, mostly near the end of the film, plus some regular \nsparkling and a little color wash on the right hand side.  I had to crop the \nbottom of the film to get rid of spurious video trash.  It appears that whoever \nmade this with the Greek subtitles blacked out a little bit of the bottom of the \nscreen, probably so the subtitles that were there could be replaced with the \nGreek ones.  Thankfully the subtitles are sparse and mostly unobtrusive.\n\nNow for the audio.  It's actually quite good but for an annoying crosstalk issue \nin the right channel.  If you have the volume high, during quiet parts, you will \nhear what appears to be a BBC documentary on gorillas at a low-level in the \nright channel.  The irony of this is not lost on me. ;-)  Can't be helped and \nthere is a special place in Hell for the imbecile who allowed this to creep on \nto the audio track.\n\nI therefore have to give the film an A/V rating of 7.5 and 9 respectively.\n\nDue to the rarity of this one, I believe collectors will still be happy.\n\nIf you find a better copy out there or happen across a DVD, even in the original \nItalian, good lord man, put it up for the rest of us!\n\nThanks and enjoy!\n\nRadioResearch\n\nGeneral\nComplete name                            : G:The Seven Red Berets \n(1969)7_red_berets.avi\nFormat                                   : AVI\nFormat/Info                              : Audio Video Interleave\nFormat profile                           : OpenDML\nFile size                                : 1.43 GiB\nDuration                                 : 1h 30mn\nOverall bit rate                         : 2 261 Kbps\nMovie name                               : Movie\nWriting application                      : MEncoder 5.0\nWriting library                          : [= DigiArty videodll! =]\n\nVideo\nID                                       : 0\nFormat                                   : MPEG-4 Visual\nFormat profile                           : Simple@L1\nFormat settings, BVOP                    : No\nFormat settings, QPel                    : No\nFormat settings, GMC                     : No warppoints\nFormat settings, Matrix                  : Default (H.263)\nCodec ID                                 : DX50\nCodec ID/Hint                            : DivX 5\nDuration                                 : 1h 30mn\nBit rate                                 : 1 999 Kbps\nWidth                                    : 692 pixels\nHeight                                   : 446 pixels\nDisplay aspect ratio                     : 1.552\nFrame rate                               : 25.000 fps\nColor space                              : YUV\nChroma subsampling                       : 4:2:0\nBit depth                                : 8 bits\nScan type                                : Progressive\nCompression mode                         : Lossy\nBits/(Pixel*Frame)                       : 0.259\nStream size                              : 1.27 GiB (88%)\nWriting library                          : Lavc54.71.100\n\nAudio\nID                                       : 1\nFormat                                   : AC-3\nFormat/Info                              : Audio Coding 3\nMode extension                           : CM (complete main)\nFormat settings, Endianness              : Big\nCodec ID                                 : 2000\nDuration                                 : 1h 30mn\nBit rate mode                            : Constant\nBit rate                                 : 256 Kbps\nChannel(s)                               : 2 channels\nChannel positions                        : Front: L R\nSampling rate                            : 48.0 KHz\nBit depth                                : 16 bits\nCompression mode                         : Lossy\nDelay relative to video                  : 9ms\nStream size                              : 166 MiB (11%)\nAlignment                                : Split accross interleaves\nInterleave, duration                     : 500 ms (12.50 video frames)\nInterleave, preload duration             : 500 ms\n\n\n\n\n-------------------------------------------------------------------------------\nGenerated with Cool NFO Creator - http://fly.to/coolbeans\n-------------------------------------------------------------------------------\n","torrent":{"xt":"urn:btih:c5da2f641c2bc6d6af82ff5b0f5172d203c94000","amp;dn":"The+Seven+rets+%281969%29","amp;tr":["udp%3A%2F%2Ftracker.openbittorrent.com%3A80","udp%3A%2F%2Fopen.demonii.com%3A1337","udp%3A%2F%2Ftracker.coppersurfer.tk%3A6969","udp%3A%2F%2Fexodus.desync.com%3A6969"],"infoHash":"c5da2f641c2bc6d6af82ff5b0f5172d203c94000","infoHashBuffer":{"type":"Buffer","data":[197,218,47,100,28,43,198,214,175,130,255,91,15,81,114,210,3,201,64,0]},"announce":[],"urlList":[]}}